# xmcd
#
# Track frame offsets: 
#        150
#        15590
#        29462
#        44370
#        57087
#        74680
#        87955
#        104312
#        118407
#        139512
#
# Disc length: 2109 seconds
#
# Revision: 2
# Processed by: cddbd v1.5.2PL0 Copyright (c) Steve Scherf et al.
# Submitted via: ExactAudioCopy v0.99pb5
#
DISCID=89083b0a
DTITLE=Dwight Yoakam - Gone
DYEAR=1995
DGENRE=Country
TTITLE0=Sorry You Asked?
TTITLE1=Near You
TTITLE2=Don't Be Sad
TTITLE3=Gone (That'll Be Me)
TTITLE4=Nothing
TTITLE5=Never Hold You
TTITLE6=This Much I Know
TTITLE7=Baby Why Not
TTITLE8=One More Night
TTITLE9=Heart Of Stone
EXTD=(c)1995 Reprise Records - Warner Bros - WEA\nupc 093624605126\nCA
EXTD=TALOG 9362460510200\nProduced by Pete Anderson YEAR: 1995
EXTT0=
EXTT1=
EXTT2=
EXTT3=
EXTT4=
EXTT5=
EXTT6=
EXTT7=
EXTT8=
EXTT9=
PLAYORDER=
